# xmcd CD database file
#
# Track frame offsets:
#	150
#	9922
#	22876
#	34260
#	43760
#	53616
#	97578
#	108314
#	118762
#	129498
#	141431
#	150931
#	161667
#
# Disc length: 2504 seconds
#
# Revision: 2
# Processed by: cddbd v1.5.2PL0 Copyright (c) Steve Scherf et al.
# Submitted via: CDex 1.51
#
DISCID=9609c60d
DTITLE=JIMMY PAGE and ALBERT LEE - Everything I Do Is Wrong
DYEAR=1997
DGENRE=Blues
TTITLE0=Lovin' Up A Storm
TTITLE1=Everything I Do Is Wrong
TTITLE2=Think It Over
TTITLE3=Boll Weevil Song
TTITLE4=Livin' Loving, Wreck
TTITLE5=One Long Kiss
TTITLE6=Dixie Fried
TTITLE7=Down The Line
TTITLE8=Fabulous
TTITLE9=Breathless
TTITLE10=Rave On
TTITLE11=Lonely Weekends
TTITLE12=Burn Up
EXTD=YEAR: 1997
EXTT0=
EXTT1=
EXTT2=
EXTT3=
EXTT4=
EXTT5=
EXTT6=
EXTT7=
EXTT8=
EXTT9=
EXTT10=
EXTT11=
EXTT12=
PLAYORDER=
